<svg version="1.1" id="Layer_1" xmlns="http://www.w3.org/2000/svg" xmlns:xlink="http://www.w3.org/1999/xlink" x="0px" y="0px"
	 width="100%" viewBox="0 0 1000 1000" enable-background="new 0 0 1000 1000" xml:space="preserve">
<path fill="#FFFFFF" opacity="1.000000" stroke="none" 
	d="
M655.000000,1001.000000 
	C436.666656,1001.000000 218.833328,1001.000000 1.000000,1001.000000 
	C1.000000,667.666687 1.000000,334.333344 1.000000,1.000000 
	C334.333344,1.000000 667.666687,1.000000 1001.000000,1.000000 
	C1001.000000,334.333344 1001.000000,667.666687 1001.000000,1001.000000 
	C885.833313,1001.000000 770.666687,1001.000000 655.000000,1001.000000 
M836.414551,753.874939 
	C845.658203,753.872375 845.680725,753.872375 845.680847,747.376465 
	C845.683594,606.893738 845.683228,466.410980 845.658691,325.928253 
	C845.658325,323.848022 845.345581,321.767822 845.114929,318.893951 
	C843.349792,320.461609 842.211243,321.377014 841.181030,322.401367 
	C786.637085,376.636475 732.092224,430.870667 677.569397,485.126953 
	C622.197144,540.228516 566.816345,595.321533 511.566193,650.545227 
	C508.267548,653.842285 506.457764,653.328979 503.529083,650.395691 
	C489.770386,636.615173 475.784668,623.061707 461.975922,609.330688 
	C397.128967,544.848816 332.300964,480.347900 267.492432,415.827393 
	C236.702530,385.174316 205.975922,354.457642 175.198441,323.792023 
	C173.797791,322.396515 172.178040,321.220886 169.788605,319.208740 
	C169.788605,322.416687 169.788635,324.232941 169.788605,326.049194 
	C169.786484,466.698578 169.801682,607.347961 169.701431,747.997314 
	C169.698318,752.375610 170.570953,754.015381 175.422195,753.991760 
	C217.249405,753.788330 259.078339,753.801453 300.905792,753.976074 
	C305.768188,753.996399 307.129242,752.513611 307.099823,747.731506 
	C306.911224,717.069763 306.999390,686.406311 307.015076,655.743408 
	C307.016022,653.902588 307.176636,652.061890 307.262970,650.221130 
	C308.005737,649.784241 308.748474,649.347351 309.491241,648.910461 
	C311.023224,651.083618 312.297455,653.507263 314.127808,655.390381 
	C329.453613,671.157959 344.851715,686.855774 360.287109,702.516357 
	C375.833862,718.289917 391.532898,733.914551 406.962219,749.801575 
	C410.080353,753.012268 411.849731,752.889221 414.835602,749.693970 
	C422.561951,741.425659 430.686646,733.530518 438.607178,725.442200 
	C460.619965,702.963196 482.634979,680.486084 504.573334,657.934509 
	C507.001587,655.438416 508.669495,655.988281 510.725342,658.235657 
	C514.540833,662.406677 518.440247,666.504883 522.403931,670.535828 
	C548.320618,696.892334 574.328186,723.159973 600.119141,749.638672 
	C603.441162,753.049194 605.157471,752.745483 608.321838,749.512268 
	C639.543640,717.611572 670.929626,685.871582 702.276917,654.093811 
	C703.717224,652.633667 705.232422,651.247498 707.674561,648.903870 
	C707.818604,652.086670 707.966675,653.844849 707.967468,655.603088 
	C707.981873,686.265991 708.091492,716.929749 707.868164,747.591003 
	C707.830505,752.757019 709.488647,754.003967 714.450439,753.981079 
	C754.777954,753.794495 795.106689,753.875305 836.414551,753.874939 
M694.529602,358.029633 
	C741.131775,311.408386 787.733887,264.787140 834.335999,218.165909 
	C833.999695,217.730606 833.663330,217.295288 833.327026,216.859970 
	C831.674194,216.859970 830.021362,216.859970 828.368530,216.859970 
	C767.871094,216.860199 707.373535,216.898956 646.876343,216.776993 
	C642.688843,216.768555 639.781067,218.031906 636.835144,220.992218 
	C593.373413,264.666779 549.752136,308.182648 506.322144,351.888672 
	C502.906830,355.325714 501.222717,354.849884 498.070465,351.670990 
	C469.720825,323.081604 441.166656,294.695099 412.766296,266.155731 
	C410.686890,264.066132 409.338654,261.248901 407.650452,258.769958 
	C405.209106,260.730621 404.490570,261.139984 403.926331,261.703796 
	C373.189209,292.418701 342.486816,323.168427 311.698029,353.831390 
	C309.240204,356.279144 309.752686,357.886902 311.932068,359.989471 
	C317.438324,365.301605 322.842560,370.720184 328.253754,376.130035 
	C384.624023,432.486115 440.986267,488.850159 497.355316,545.207458 
	C502.328949,550.179993 502.372772,550.194031 507.386139,545.181335 
	C569.605896,482.969391 631.816589,420.748383 694.529602,358.029633 
z"/>
<path fill="#51A2FF" opacity="1.000000" stroke="none" 
	d="
M835.924805,753.874878 
	C795.106689,753.875305 754.777954,753.794495 714.450439,753.981079 
	C709.488647,754.003967 707.830505,752.757019 707.868164,747.591003 
	C708.091492,716.929749 707.981873,686.265991 707.967468,655.603088 
	C707.966675,653.844849 707.818604,652.086670 707.674561,648.903870 
	C705.232422,651.247498 703.717224,652.633667 702.276917,654.093811 
	C670.929626,685.871582 639.543640,717.611572 608.321838,749.512268 
	C605.157471,752.745483 603.441162,753.049194 600.119141,749.638672 
	C574.328186,723.159973 548.320618,696.892334 522.403931,670.535828 
	C518.440247,666.504883 514.540833,662.406677 510.725342,658.235657 
	C508.669495,655.988281 507.001587,655.438416 504.573334,657.934509 
	C482.634979,680.486084 460.619965,702.963196 438.607178,725.442200 
	C430.686646,733.530518 422.561951,741.425659 414.835602,749.693970 
	C411.849731,752.889221 410.080353,753.012268 406.962219,749.801575 
	C391.532898,733.914551 375.833862,718.289917 360.287109,702.516357 
	C344.851715,686.855774 329.453613,671.157959 314.127808,655.390381 
	C312.297455,653.507263 311.023224,651.083618 309.491241,648.910461 
	C308.748474,649.347351 308.005737,649.784241 307.262970,650.221130 
	C307.176636,652.061890 307.016022,653.902588 307.015076,655.743408 
	C306.999390,686.406311 306.911224,717.069763 307.099823,747.731506 
	C307.129242,752.513611 305.768188,753.996399 300.905792,753.976074 
	C259.078339,753.801453 217.249405,753.788330 175.422195,753.991760 
	C170.570953,754.015381 169.698318,752.375610 169.701431,747.997314 
	C169.801682,607.347961 169.786484,466.698578 169.788605,326.049194 
	C169.788635,324.232941 169.788605,322.416687 169.788605,319.208740 
	C172.178040,321.220886 173.797791,322.396515 175.198441,323.792023 
	C205.975922,354.457642 236.702530,385.174316 267.492432,415.827393 
	C332.300964,480.347900 397.128967,544.848816 461.975922,609.330688 
	C475.784668,623.061707 489.770386,636.615173 503.529083,650.395691 
	C506.457764,653.328979 508.267548,653.842285 511.566193,650.545227 
	C566.816345,595.321533 622.197144,540.228516 677.569397,485.126953 
	C732.092224,430.870667 786.637085,376.636475 841.181030,322.401367 
	C842.211243,321.377014 843.349792,320.461609 845.114929,318.893951 
	C845.345581,321.767822 845.658325,323.848022 845.658691,325.928253 
	C845.683228,466.410980 845.683594,606.893738 845.680847,747.376465 
	C845.680725,753.872375 845.658203,753.872375 835.924805,753.874878 
z"/>
<path fill="#3CD559" opacity="1.000000" stroke="none" 
	d="
M694.279602,358.279663 
	C631.816589,420.748383 569.605896,482.969391 507.386139,545.181335 
	C502.372772,550.194031 502.328949,550.179993 497.355316,545.207458 
	C440.986267,488.850159 384.624023,432.486115 328.253754,376.130035 
	C322.842560,370.720184 317.438324,365.301605 311.932068,359.989471 
	C309.752686,357.886902 309.240204,356.279144 311.698029,353.831390 
	C342.486816,323.168427 373.189209,292.418701 403.926331,261.703796 
	C404.490570,261.139984 405.209106,260.730621 407.650452,258.769958 
	C409.338654,261.248901 410.686890,264.066132 412.766296,266.155731 
	C441.166656,294.695099 469.720825,323.081604 498.070465,351.670990 
	C501.222717,354.849884 502.906830,355.325714 506.322144,351.888672 
	C549.752136,308.182648 593.373413,264.666779 636.835144,220.992218 
	C639.781067,218.031906 642.688843,216.768555 646.876343,216.776993 
	C707.373535,216.898956 767.871094,216.860199 828.368530,216.859970 
	C830.021362,216.859970 831.674194,216.859970 833.327026,216.859970 
	C833.663330,217.295288 833.999695,217.730606 834.335999,218.165909 
	C787.733887,264.787140 741.131775,311.408386 694.279602,358.279663 
z"/>
</svg>